<svg width="253" height="69" viewBox="0 0 253 69" fill="none" xmlns="http://www.w3.org/2000/svg">
<path d="M49.4101 14.1301C46.8901 13.1701 44.4301 12.3901 42.0301 11.7901C39.6901 11.1901 37.0201 10.8601 34.0201 10.8001C31.0801 10.6801 28.4701 11.0401 26.1901 11.8801C23.9101 12.7201 21.8401 14.3401 19.9801 16.7401C18.1201 19.0801 16.8901 22.1701 16.2901 26.0101C16.1701 26.6701 18.4501 26.8801 23.1301 26.6401C27.8101 26.3401 32.3701 26.0101 36.8101 25.6501C41.2501 25.2901 44.3101 25.5601 45.9901 26.4601C51.9301 31.7401 56.1001 36.6301 58.5001 41.1301C59.7001 43.2901 59.1901 46.4101 56.9701 50.4901C54.1501 55.5901 50.0701 59.3401 44.7301 61.7401C35.3101 66.0601 24.9901 64.4701 13.7701 56.9701C9.2101 53.9101 4.6201 49.8601 9.76697e-05 44.8201L2.7001 43.4701C6.1801 45.3301 8.9701 46.7701 11.0701 47.7901C13.2301 48.8101 15.9301 49.8601 19.1701 50.9401C22.4101 51.9601 25.2601 52.5001 27.7201 52.5601C33.4201 52.6801 38.1001 51.3001 41.7601 48.4201C45.4201 45.4801 47.4901 41.5201 47.9701 36.5401C48.0301 36.0001 45.8701 36.0901 41.4901 36.8101C37.1101 37.4701 32.7001 38.0701 28.2601 38.6101C23.8201 39.1501 20.4601 38.7301 18.1801 37.3501C15.7801 35.4301 12.0301 31.6501 6.9301 26.0101C5.3101 24.0301 4.4701 21.9001 4.4101 19.6201C4.3501 17.3401 5.1001 15.0301 6.6601 12.6901C8.2201 10.3501 10.1401 8.25006 12.4201 6.39006C14.7001 4.53005 17.3701 3.00005 20.4301 1.80006C23.5501 0.600057 26.6401 5.72205e-05 29.7001 5.72205e-05C30.4801 5.72205e-05 31.9501 0.510056 34.1101 1.53005C36.2701 2.49006 39.2401 3.96006 43.0201 5.94006C46.8601 7.92006 49.3801 9.21005 50.5801 9.81005L49.4101 14.1301ZM73.7028 47.6301L89.5928 36.7801C86.2328 34.6334 83.3628 33.8401 80.9828 34.4001C78.6495 34.9601 76.8528 36.4301 75.5928 38.8101C74.3328 41.1434 73.7028 44.0834 73.7028 47.6301ZM75.3128 54.3501C76.6195 55.9367 78.0895 56.9167 79.7228 57.2901C81.3562 57.6634 83.0595 57.4534 84.8328 56.6601C86.6528 55.8201 88.1695 55.0034 89.3828 54.2101C90.5962 53.3701 92.0195 52.2734 93.6528 50.9201L95.0528 52.3201C95.9395 53.3001 96.8262 54.2801 97.7128 55.2601L99.1128 56.6601C95.0528 59.6467 91.6228 61.6301 88.8228 62.6101C86.0228 63.6367 83.2462 63.6367 80.4928 62.6101C76.4795 61.0701 72.6995 58.3634 69.1528 54.4901C67.0528 52.1567 65.8395 49.4034 65.5128 46.2301C65.1862 43.0101 65.5828 40.0234 66.7028 37.2701C67.8695 34.5167 69.6428 32.1834 72.0228 30.2701C74.4495 28.3101 77.0862 27.3301 79.9328 27.3301C81.7995 27.3301 84.5528 28.5434 88.1928 30.9701C91.8795 33.3501 94.9362 35.6834 97.3628 37.9701C97.3162 38.1101 95.4495 39.5567 91.7628 42.3101C88.1228 45.0167 84.4595 47.7001 80.7728 50.3601L75.3128 54.3501ZM114.074 30.0601V35.2401C117.481 29.8734 120.374 27.1901 122.754 27.1901C123.921 27.1901 125.881 27.7967 128.634 29.0101C131.388 30.1767 133.698 31.3901 135.564 32.6501L130.734 39.6501C127.841 37.5034 125.321 36.3367 123.174 36.1501C121.074 35.9167 119.394 36.3367 118.134 37.4101C116.874 38.4367 115.521 40.1167 114.074 42.4501V63.5901L105.324 61.6301V28.1001L114.074 30.0601ZM146.916 47.6301L162.806 36.7801C159.446 34.6334 156.576 33.8401 154.196 34.4001C151.862 34.9601 150.066 36.4301 148.806 38.8101C147.546 41.1434 146.916 44.0834 146.916 47.6301ZM148.526 54.3501C149.832 55.9367 151.302 56.9167 152.936 57.2901C154.569 57.6634 156.272 57.4534 158.046 56.6601C159.866 55.8201 161.382 55.0034 162.596 54.2101C163.809 53.3701 165.232 52.2734 166.866 50.9201L168.266 52.3201C169.152 53.3001 170.039 54.2801 170.926 55.2601L172.326 56.6601C168.266 59.6467 164.836 61.6301 162.036 62.6101C159.236 63.6367 156.459 63.6367 153.706 62.6101C149.692 61.0701 145.912 58.3634 142.366 54.4901C140.266 52.1567 139.052 49.4034 138.726 46.2301C138.399 43.0101 138.796 40.0234 139.916 37.2701C141.082 34.5167 142.856 32.1834 145.236 30.2701C147.662 28.3101 150.299 27.3301 153.146 27.3301C155.012 27.3301 157.766 28.5434 161.406 30.9701C165.092 33.3501 168.149 35.6834 170.576 37.9701C170.529 38.1101 168.662 39.5567 164.976 42.3101C161.336 45.0167 157.672 47.7001 153.986 50.3601L148.526 54.3501ZM187.567 30.0601V32.9301C191.72 29.0567 195.36 27.2134 198.487 27.4001C199.98 27.4934 202.594 29.3601 206.327 33.0001C210.107 36.5934 212.114 39.0434 212.347 40.3501C212.534 41.5634 212.627 49.3101 212.627 63.5901L203.947 61.6301C204.227 45.6234 204.11 37.1534 203.597 36.2201C202.757 34.6334 201.357 34.1667 199.397 34.8201C197.484 35.4267 195.477 36.5467 193.377 38.1801C191.324 39.8134 189.387 41.7267 187.567 43.9201V63.5901L178.467 61.6301V28.1001L187.567 30.0601ZM227.375 47.6301L243.265 36.7801C239.905 34.6334 237.035 33.8401 234.655 34.4001C232.321 34.9601 230.525 36.4301 229.265 38.8101C228.005 41.1434 227.375 44.0834 227.375 47.6301ZM228.985 54.3501C230.291 55.9367 231.761 56.9167 233.395 57.2901C235.028 57.6634 236.731 57.4534 238.505 56.6601C240.325 55.8201 241.841 55.0034 243.055 54.2101C244.268 53.3701 245.691 52.2734 247.325 50.9201L248.725 52.3201C249.611 53.3001 250.498 54.2801 251.385 55.2601L252.785 56.6601C248.725 59.6467 245.295 61.6301 242.495 62.6101C239.695 63.6367 236.918 63.6367 234.165 62.6101C230.151 61.0701 226.371 58.3634 222.825 54.4901C220.725 52.1567 219.511 49.4034 219.185 46.2301C218.858 43.0101 219.255 40.0234 220.375 37.2701C221.541 34.5167 223.315 32.1834 225.695 30.2701C228.121 28.3101 230.758 27.3301 233.605 27.3301C235.471 27.3301 238.225 28.5434 241.865 30.9701C245.551 33.3501 248.608 35.6834 251.035 37.9701C250.988 38.1101 249.121 39.5567 245.435 42.3101C241.795 45.0167 238.131 47.7001 234.445 50.3601L228.985 54.3501Z" fill="#199499"/>
</svg>
